<mxfile host="app.diagrams.net" modified="2020-10-21T09:05:06.363Z" agent="5.0 (Windows NT 10.0; Win64; x64) AppleWebKit/537.36 (KHTML, like Gecko) Chrome/86.0.4240.75 Safari/537.36" etag="JwoWzcHcQKMw1Yt0m0ga" version="13.8.1" type="github" pages="2">
  <diagram id="bYf_z_Dx9YxHH0gDHYE4" name="Use_Case_Diagram">
    <mxGraphModel dx="1081" dy="2054" grid="1" gridSize="10" guides="1" tooltips="1" connect="1" arrows="1" fold="1" page="1" pageScale="1" pageWidth="827" pageHeight="1169" math="0" shadow="0">
      <root>
        <mxCell id="0" />
        <mxCell id="1" parent="0" />
        <mxCell id="bB5sSIjRtoqtylgc28R9-1" value="" style="rounded=0;whiteSpace=wrap;html=1;" vertex="1" parent="1">
          <mxGeometry x="270" y="-50" width="400" height="600" as="geometry" />
        </mxCell>
        <mxCell id="KXQqL6VoU0fM70NLtaIS-1" value="Server" style="shape=umlActor;verticalLabelPosition=bottom;verticalAlign=top;html=1;outlineConnect=0;" parent="1" vertex="1">
          <mxGeometry x="690" y="290" width="30" height="60" as="geometry" />
        </mxCell>
        <mxCell id="KXQqL6VoU0fM70NLtaIS-12" value="Notify User" style="ellipse;whiteSpace=wrap;html=1;" parent="1" vertex="1">
          <mxGeometry x="500" y="200" width="120" height="80" as="geometry" />
        </mxCell>
        <mxCell id="KXQqL6VoU0fM70NLtaIS-13" value="Handle Data from cameras" style="ellipse;whiteSpace=wrap;html=1;" parent="1" vertex="1">
          <mxGeometry x="500" y="280" width="120" height="80" as="geometry" />
        </mxCell>
        <mxCell id="KXQqL6VoU0fM70NLtaIS-16" value="" style="endArrow=none;html=1;exitX=1;exitY=0.5;exitDx=0;exitDy=0;entryX=0.5;entryY=0.5;entryDx=0;entryDy=0;entryPerimeter=0;" parent="1" source="KXQqL6VoU0fM70NLtaIS-23" target="KXQqL6VoU0fM70NLtaIS-1" edge="1">
          <mxGeometry width="50" height="50" relative="1" as="geometry">
            <mxPoint x="620" y="390" as="sourcePoint" />
            <mxPoint x="775" y="600" as="targetPoint" />
          </mxGeometry>
        </mxCell>
        <mxCell id="KXQqL6VoU0fM70NLtaIS-21" value="" style="endArrow=none;html=1;exitX=0.5;exitY=0.5;exitDx=0;exitDy=0;exitPerimeter=0;entryX=1;entryY=0.5;entryDx=0;entryDy=0;" parent="1" source="KXQqL6VoU0fM70NLtaIS-1" target="KXQqL6VoU0fM70NLtaIS-13" edge="1">
          <mxGeometry width="50" height="50" relative="1" as="geometry">
            <mxPoint x="195" y="380" as="sourcePoint" />
            <mxPoint x="360.0000000000002" y="180" as="targetPoint" />
          </mxGeometry>
        </mxCell>
        <mxCell id="KXQqL6VoU0fM70NLtaIS-22" value="" style="endArrow=none;html=1;exitX=0.5;exitY=0.5;exitDx=0;exitDy=0;exitPerimeter=0;entryX=1;entryY=0.5;entryDx=0;entryDy=0;" parent="1" source="KXQqL6VoU0fM70NLtaIS-1" target="KXQqL6VoU0fM70NLtaIS-12" edge="1">
          <mxGeometry width="50" height="50" relative="1" as="geometry">
            <mxPoint x="205" y="390" as="sourcePoint" />
            <mxPoint x="370.0000000000002" y="190" as="targetPoint" />
          </mxGeometry>
        </mxCell>
        <mxCell id="KXQqL6VoU0fM70NLtaIS-23" value="improve database and recognition algorithm" style="ellipse;whiteSpace=wrap;html=1;" parent="1" vertex="1">
          <mxGeometry x="500" y="360" width="120" height="80" as="geometry" />
        </mxCell>
        <mxCell id="KXQqL6VoU0fM70NLtaIS-24" value="data transmission using encryption" style="ellipse;whiteSpace=wrap;html=1;" parent="1" vertex="1">
          <mxGeometry x="500" y="440" width="120" height="80" as="geometry" />
        </mxCell>
        <mxCell id="KXQqL6VoU0fM70NLtaIS-25" value="" style="endArrow=none;html=1;exitX=1;exitY=0.5;exitDx=0;exitDy=0;entryX=0.5;entryY=0.5;entryDx=0;entryDy=0;entryPerimeter=0;" parent="1" source="KXQqL6VoU0fM70NLtaIS-24" target="KXQqL6VoU0fM70NLtaIS-1" edge="1">
          <mxGeometry width="50" height="50" relative="1" as="geometry">
            <mxPoint x="630.000000000002" y="370" as="sourcePoint" />
            <mxPoint x="714.9999999999998" y="330" as="targetPoint" />
          </mxGeometry>
        </mxCell>
        <mxCell id="KXQqL6VoU0fM70NLtaIS-28" value="Perform actions depending on the user input" style="ellipse;whiteSpace=wrap;html=1;" parent="1" vertex="1">
          <mxGeometry x="500" y="120" width="120" height="80" as="geometry" />
        </mxCell>
        <mxCell id="KXQqL6VoU0fM70NLtaIS-29" value="" style="endArrow=none;html=1;entryX=1;entryY=0.5;entryDx=0;entryDy=0;exitX=0.5;exitY=0.5;exitDx=0;exitDy=0;exitPerimeter=0;" parent="1" source="KXQqL6VoU0fM70NLtaIS-1" target="KXQqL6VoU0fM70NLtaIS-28" edge="1">
          <mxGeometry width="50" height="50" relative="1" as="geometry">
            <mxPoint x="700" y="320" as="sourcePoint" />
            <mxPoint x="630" y="210" as="targetPoint" />
          </mxGeometry>
        </mxCell>
        <mxCell id="bB5sSIjRtoqtylgc28R9-3" value="Login/out" style="ellipse;whiteSpace=wrap;html=1;" vertex="1" parent="1">
          <mxGeometry x="330" y="20" width="120" height="80" as="geometry" />
        </mxCell>
        <mxCell id="bB5sSIjRtoqtylgc28R9-5" value="Watch live video" style="ellipse;whiteSpace=wrap;html=1;" vertex="1" parent="1">
          <mxGeometry x="330" y="340" width="120" height="80" as="geometry" />
        </mxCell>
        <mxCell id="bB5sSIjRtoqtylgc28R9-6" value="look at the activity history" style="ellipse;whiteSpace=wrap;html=1;" vertex="1" parent="1">
          <mxGeometry x="330" y="420" width="120" height="80" as="geometry" />
        </mxCell>
        <mxCell id="bB5sSIjRtoqtylgc28R9-7" value="Allow/decline visitors" style="ellipse;whiteSpace=wrap;html=1;" vertex="1" parent="1">
          <mxGeometry x="330" y="260" width="120" height="80" as="geometry" />
        </mxCell>
        <mxCell id="bB5sSIjRtoqtylgc28R9-11" value="" style="endArrow=none;html=1;exitX=0.5;exitY=0.5;exitDx=0;exitDy=0;exitPerimeter=0;entryX=0;entryY=0.5;entryDx=0;entryDy=0;" edge="1" parent="1" source="bB5sSIjRtoqtylgc28R9-8" target="bB5sSIjRtoqtylgc28R9-3">
          <mxGeometry width="50" height="50" relative="1" as="geometry">
            <mxPoint x="440" y="380" as="sourcePoint" />
            <mxPoint x="490" y="330" as="targetPoint" />
          </mxGeometry>
        </mxCell>
        <mxCell id="bB5sSIjRtoqtylgc28R9-13" value="" style="endArrow=none;html=1;entryX=0;entryY=0.5;entryDx=0;entryDy=0;exitX=0.5;exitY=0.5;exitDx=0;exitDy=0;exitPerimeter=0;" edge="1" parent="1" source="bB5sSIjRtoqtylgc28R9-8" target="bB5sSIjRtoqtylgc28R9-4">
          <mxGeometry width="50" height="50" relative="1" as="geometry">
            <mxPoint x="140" y="320" as="sourcePoint" />
            <mxPoint x="320.0000000000002" y="140" as="targetPoint" />
          </mxGeometry>
        </mxCell>
        <mxCell id="bB5sSIjRtoqtylgc28R9-14" value="" style="endArrow=none;html=1;exitX=0.5;exitY=0.5;exitDx=0;exitDy=0;exitPerimeter=0;entryX=0;entryY=0.5;entryDx=0;entryDy=0;" edge="1" parent="1" source="bB5sSIjRtoqtylgc28R9-8" target="bB5sSIjRtoqtylgc28R9-7">
          <mxGeometry width="50" height="50" relative="1" as="geometry">
            <mxPoint x="165" y="350" as="sourcePoint" />
            <mxPoint x="330.0000000000002" y="150" as="targetPoint" />
          </mxGeometry>
        </mxCell>
        <mxCell id="bB5sSIjRtoqtylgc28R9-15" value="" style="endArrow=none;html=1;exitX=0.5;exitY=0.5;exitDx=0;exitDy=0;exitPerimeter=0;entryX=0;entryY=0.5;entryDx=0;entryDy=0;" edge="1" parent="1" source="bB5sSIjRtoqtylgc28R9-8" target="bB5sSIjRtoqtylgc28R9-5">
          <mxGeometry width="50" height="50" relative="1" as="geometry">
            <mxPoint x="175" y="360" as="sourcePoint" />
            <mxPoint x="340.0000000000002" y="160" as="targetPoint" />
          </mxGeometry>
        </mxCell>
        <mxCell id="bB5sSIjRtoqtylgc28R9-16" value="" style="endArrow=none;html=1;exitX=0.5;exitY=0.5;exitDx=0;exitDy=0;exitPerimeter=0;entryX=0;entryY=0.5;entryDx=0;entryDy=0;" edge="1" parent="1" source="bB5sSIjRtoqtylgc28R9-8" target="bB5sSIjRtoqtylgc28R9-6">
          <mxGeometry width="50" height="50" relative="1" as="geometry">
            <mxPoint x="185" y="370" as="sourcePoint" />
            <mxPoint x="350.0000000000002" y="170" as="targetPoint" />
          </mxGeometry>
        </mxCell>
        <mxCell id="bB5sSIjRtoqtylgc28R9-23" value="" style="endArrow=none;html=1;entryX=0;entryY=0.5;entryDx=0;entryDy=0;exitX=0.5;exitY=0.5;exitDx=0;exitDy=0;exitPerimeter=0;" edge="1" parent="1" source="bB5sSIjRtoqtylgc28R9-8" target="bB5sSIjRtoqtylgc28R9-22">
          <mxGeometry width="50" height="50" relative="1" as="geometry">
            <mxPoint x="140" y="320" as="sourcePoint" />
            <mxPoint x="310" y="210" as="targetPoint" />
          </mxGeometry>
        </mxCell>
        <mxCell id="bB5sSIjRtoqtylgc28R9-8" value="User" style="shape=umlActor;verticalLabelPosition=bottom;verticalAlign=top;html=1;outlineConnect=0;" vertex="1" parent="1">
          <mxGeometry x="170" y="240" width="30" height="60" as="geometry" />
        </mxCell>
        <mxCell id="bB5sSIjRtoqtylgc28R9-4" value="Manage Accounts and Rights" style="ellipse;whiteSpace=wrap;html=1;" vertex="1" parent="1">
          <mxGeometry x="330" y="100" width="120" height="80" as="geometry" />
        </mxCell>
        <mxCell id="bB5sSIjRtoqtylgc28R9-22" value="Filter for saved categories of visitors (e.g. known, unknown, unwelcome)" style="ellipse;whiteSpace=wrap;html=1;" vertex="1" parent="1">
          <mxGeometry x="330" y="180" width="120" height="80" as="geometry" />
        </mxCell>
        <mxCell id="UfY7HnvDP1MFiJrExTSl-3" value="" style="endArrow=none;html=1;entryX=0;entryY=0.5;entryDx=0;entryDy=0;exitX=0.5;exitY=0.5;exitDx=0;exitDy=0;exitPerimeter=0;" edge="1" parent="1" source="bB5sSIjRtoqtylgc28R9-8" target="bB5sSIjRtoqtylgc28R9-22">
          <mxGeometry width="50" height="50" relative="1" as="geometry">
            <mxPoint x="165" y="320" as="sourcePoint" />
            <mxPoint x="350.00000000000205" y="140" as="targetPoint" />
          </mxGeometry>
        </mxCell>
      </root>
    </mxGraphModel>
  </diagram>
  <diagram id="51uBncpZeKGi5nlefZB6" name="Activity_Diagram_Manage_Accounts">
    <mxGraphModel dx="766" dy="627" grid="1" gridSize="10" guides="1" tooltips="1" connect="1" arrows="1" fold="1" page="1" pageScale="1" pageWidth="827" pageHeight="1169" math="0" shadow="0">
      <root>
        <mxCell id="MIjQvJClVpNPJ3KCYoKW-0" />
        <mxCell id="MIjQvJClVpNPJ3KCYoKW-1" parent="MIjQvJClVpNPJ3KCYoKW-0" />
        <mxCell id="uPn5avV3h4MO-AuFN-KD-0" value="Manage Accounts and Rights" style="ellipse;whiteSpace=wrap;html=1;" vertex="1" parent="MIjQvJClVpNPJ3KCYoKW-1">
          <mxGeometry x="220" y="10" width="120" height="80" as="geometry" />
        </mxCell>
        <mxCell id="uPn5avV3h4MO-AuFN-KD-1" value="add account" style="ellipse;whiteSpace=wrap;html=1;" vertex="1" parent="MIjQvJClVpNPJ3KCYoKW-1">
          <mxGeometry x="158" y="250" width="120" height="80" as="geometry" />
        </mxCell>
        <mxCell id="uPn5avV3h4MO-AuFN-KD-2" value="add rights" style="ellipse;whiteSpace=wrap;html=1;" vertex="1" parent="MIjQvJClVpNPJ3KCYoKW-1">
          <mxGeometry x="282" y="250" width="120" height="80" as="geometry" />
        </mxCell>
        <mxCell id="uPn5avV3h4MO-AuFN-KD-3" value="delete account" style="ellipse;whiteSpace=wrap;html=1;" vertex="1" parent="MIjQvJClVpNPJ3KCYoKW-1">
          <mxGeometry x="38" y="250" width="120" height="80" as="geometry" />
        </mxCell>
        <mxCell id="uPn5avV3h4MO-AuFN-KD-4" value="save configuration" style="ellipse;whiteSpace=wrap;html=1;" vertex="1" parent="MIjQvJClVpNPJ3KCYoKW-1">
          <mxGeometry x="220" y="420" width="120" height="80" as="geometry" />
        </mxCell>
        <mxCell id="uPn5avV3h4MO-AuFN-KD-5" value="remove rights" style="ellipse;whiteSpace=wrap;html=1;" vertex="1" parent="MIjQvJClVpNPJ3KCYoKW-1">
          <mxGeometry x="402" y="250" width="120" height="80" as="geometry" />
        </mxCell>
        <mxCell id="uPn5avV3h4MO-AuFN-KD-6" value="show error message" style="ellipse;whiteSpace=wrap;html=1;" vertex="1" parent="MIjQvJClVpNPJ3KCYoKW-1">
          <mxGeometry x="562" y="250" width="120" height="80" as="geometry" />
        </mxCell>
        <mxCell id="uPn5avV3h4MO-AuFN-KD-7" value="User has needed (write) rights?" style="ellipse;whiteSpace=wrap;html=1;" vertex="1" parent="MIjQvJClVpNPJ3KCYoKW-1">
          <mxGeometry x="220" y="110" width="120" height="80" as="geometry" />
        </mxCell>
        <mxCell id="uPn5avV3h4MO-AuFN-KD-42" value="" style="endArrow=classic;html=1;entryX=0.5;entryY=0;entryDx=0;entryDy=0;" edge="1" parent="MIjQvJClVpNPJ3KCYoKW-1" target="uPn5avV3h4MO-AuFN-KD-5">
          <mxGeometry width="50" height="50" relative="1" as="geometry">
            <mxPoint x="280" y="230" as="sourcePoint" />
            <mxPoint x="410" y="310" as="targetPoint" />
          </mxGeometry>
        </mxCell>
        <mxCell id="uPn5avV3h4MO-AuFN-KD-48" value="" style="endArrow=classic;html=1;entryX=0.5;entryY=0;entryDx=0;entryDy=0;" edge="1" parent="MIjQvJClVpNPJ3KCYoKW-1" target="uPn5avV3h4MO-AuFN-KD-2">
          <mxGeometry width="50" height="50" relative="1" as="geometry">
            <mxPoint x="280" y="230" as="sourcePoint" />
            <mxPoint x="410" y="310" as="targetPoint" />
          </mxGeometry>
        </mxCell>
        <mxCell id="uPn5avV3h4MO-AuFN-KD-54" value="" style="endArrow=classic;html=1;entryX=0.5;entryY=0;entryDx=0;entryDy=0;" edge="1" parent="MIjQvJClVpNPJ3KCYoKW-1" target="uPn5avV3h4MO-AuFN-KD-1">
          <mxGeometry width="50" height="50" relative="1" as="geometry">
            <mxPoint x="280" y="230" as="sourcePoint" />
            <mxPoint x="410" y="310" as="targetPoint" />
          </mxGeometry>
        </mxCell>
        <mxCell id="uPn5avV3h4MO-AuFN-KD-56" value="" style="endArrow=classic;html=1;entryX=0.5;entryY=0;entryDx=0;entryDy=0;" edge="1" parent="MIjQvJClVpNPJ3KCYoKW-1" target="uPn5avV3h4MO-AuFN-KD-3">
          <mxGeometry width="50" height="50" relative="1" as="geometry">
            <mxPoint x="280" y="230" as="sourcePoint" />
            <mxPoint x="430" y="329.9999999999999" as="targetPoint" />
          </mxGeometry>
        </mxCell>
        <mxCell id="uPn5avV3h4MO-AuFN-KD-57" value="" style="endArrow=classic;html=1;exitX=0.5;exitY=1;exitDx=0;exitDy=0;entryX=0.5;entryY=0;entryDx=0;entryDy=0;" edge="1" parent="MIjQvJClVpNPJ3KCYoKW-1" source="uPn5avV3h4MO-AuFN-KD-3" target="uPn5avV3h4MO-AuFN-KD-4">
          <mxGeometry width="50" height="50" relative="1" as="geometry">
            <mxPoint x="390" y="389.9999999999999" as="sourcePoint" />
            <mxPoint x="440" y="339.9999999999999" as="targetPoint" />
          </mxGeometry>
        </mxCell>
        <mxCell id="uPn5avV3h4MO-AuFN-KD-58" value="" style="endArrow=classic;html=1;exitX=0.5;exitY=1;exitDx=0;exitDy=0;entryX=0.5;entryY=0;entryDx=0;entryDy=0;" edge="1" parent="MIjQvJClVpNPJ3KCYoKW-1" source="uPn5avV3h4MO-AuFN-KD-1" target="uPn5avV3h4MO-AuFN-KD-4">
          <mxGeometry width="50" height="50" relative="1" as="geometry">
            <mxPoint x="400" y="399.9999999999999" as="sourcePoint" />
            <mxPoint x="450" y="349.9999999999999" as="targetPoint" />
          </mxGeometry>
        </mxCell>
        <mxCell id="uPn5avV3h4MO-AuFN-KD-59" value="" style="endArrow=classic;html=1;exitX=0.5;exitY=1;exitDx=0;exitDy=0;entryX=0.5;entryY=0;entryDx=0;entryDy=0;" edge="1" parent="MIjQvJClVpNPJ3KCYoKW-1" source="uPn5avV3h4MO-AuFN-KD-2" target="uPn5avV3h4MO-AuFN-KD-4">
          <mxGeometry width="50" height="50" relative="1" as="geometry">
            <mxPoint x="410" y="409.9999999999999" as="sourcePoint" />
            <mxPoint x="460" y="359.9999999999999" as="targetPoint" />
          </mxGeometry>
        </mxCell>
        <mxCell id="uPn5avV3h4MO-AuFN-KD-60" value="" style="endArrow=classic;html=1;exitX=0.5;exitY=1;exitDx=0;exitDy=0;entryX=0.5;entryY=0;entryDx=0;entryDy=0;" edge="1" parent="MIjQvJClVpNPJ3KCYoKW-1" source="uPn5avV3h4MO-AuFN-KD-5" target="uPn5avV3h4MO-AuFN-KD-4">
          <mxGeometry width="50" height="50" relative="1" as="geometry">
            <mxPoint x="420" y="419.9999999999999" as="sourcePoint" />
            <mxPoint x="470" y="369.9999999999999" as="targetPoint" />
          </mxGeometry>
        </mxCell>
        <object label="" id="uPn5avV3h4MO-AuFN-KD-61">
          <mxCell style="endArrow=none;html=1;exitX=0.5;exitY=1;exitDx=0;exitDy=0;" edge="1" parent="MIjQvJClVpNPJ3KCYoKW-1" source="uPn5avV3h4MO-AuFN-KD-7">
            <mxGeometry width="50" height="50" relative="1" as="geometry">
              <mxPoint x="360" y="360" as="sourcePoint" />
              <mxPoint x="280" y="230" as="targetPoint" />
            </mxGeometry>
          </mxCell>
        </object>
        <mxCell id="uPn5avV3h4MO-AuFN-KD-62" value="Yes" style="text;html=1;strokeColor=none;fillColor=none;align=center;verticalAlign=middle;whiteSpace=wrap;rounded=0;" vertex="1" parent="MIjQvJClVpNPJ3KCYoKW-1">
          <mxGeometry x="282" y="200" width="40" height="20" as="geometry" />
        </mxCell>
        <mxCell id="uPn5avV3h4MO-AuFN-KD-65" value="View Accounts" style="ellipse;whiteSpace=wrap;html=1;" vertex="1" parent="MIjQvJClVpNPJ3KCYoKW-1">
          <mxGeometry x="360" y="545" width="120" height="80" as="geometry" />
        </mxCell>
        <mxCell id="uPn5avV3h4MO-AuFN-KD-66" value="No" style="text;html=1;strokeColor=none;fillColor=none;align=center;verticalAlign=middle;whiteSpace=wrap;rounded=0;" vertex="1" parent="MIjQvJClVpNPJ3KCYoKW-1">
          <mxGeometry x="620" y="210" width="40" height="20" as="geometry" />
        </mxCell>
        <object label="" id="uPn5avV3h4MO-AuFN-KD-67">
          <mxCell style="endArrow=none;html=1;exitX=0.5;exitY=1;exitDx=0;exitDy=0;" edge="1" parent="MIjQvJClVpNPJ3KCYoKW-1" source="uPn5avV3h4MO-AuFN-KD-7">
            <mxGeometry width="50" height="50" relative="1" as="geometry">
              <mxPoint x="290" y="200" as="sourcePoint" />
              <mxPoint x="620" y="190" as="targetPoint" />
            </mxGeometry>
          </mxCell>
        </object>
        <object label="" id="uPn5avV3h4MO-AuFN-KD-68">
          <mxCell style="endArrow=none;html=1;entryX=0.5;entryY=0;entryDx=0;entryDy=0;" edge="1" parent="MIjQvJClVpNPJ3KCYoKW-1" target="uPn5avV3h4MO-AuFN-KD-6">
            <mxGeometry width="50" height="50" relative="1" as="geometry">
              <mxPoint x="622" y="190" as="sourcePoint" />
              <mxPoint x="300" y="249.9999999999999" as="targetPoint" />
            </mxGeometry>
          </mxCell>
        </object>
        <mxCell id="iclMmv0nS1doL0X6kXzv-0" value="" style="endArrow=classic;html=1;exitX=0.5;exitY=1;exitDx=0;exitDy=0;entryX=0.5;entryY=0;entryDx=0;entryDy=0;" edge="1" parent="MIjQvJClVpNPJ3KCYoKW-1" source="uPn5avV3h4MO-AuFN-KD-4" target="uPn5avV3h4MO-AuFN-KD-65">
          <mxGeometry width="50" height="50" relative="1" as="geometry">
            <mxPoint x="360" y="540" as="sourcePoint" />
            <mxPoint x="410" y="490" as="targetPoint" />
          </mxGeometry>
        </mxCell>
        <mxCell id="iclMmv0nS1doL0X6kXzv-2" value="" style="endArrow=classic;html=1;exitX=0.5;exitY=1;exitDx=0;exitDy=0;entryX=0.5;entryY=0;entryDx=0;entryDy=0;" edge="1" parent="MIjQvJClVpNPJ3KCYoKW-1" source="uPn5avV3h4MO-AuFN-KD-6" target="uPn5avV3h4MO-AuFN-KD-65">
          <mxGeometry width="50" height="50" relative="1" as="geometry">
            <mxPoint x="360" y="540" as="sourcePoint" />
            <mxPoint x="410" y="490" as="targetPoint" />
          </mxGeometry>
        </mxCell>
        <mxCell id="iclMmv0nS1doL0X6kXzv-3" value="" style="endArrow=classic;html=1;exitX=0.5;exitY=1;exitDx=0;exitDy=0;entryX=0.5;entryY=0;entryDx=0;entryDy=0;" edge="1" parent="MIjQvJClVpNPJ3KCYoKW-1" source="uPn5avV3h4MO-AuFN-KD-0" target="uPn5avV3h4MO-AuFN-KD-7">
          <mxGeometry width="50" height="50" relative="1" as="geometry">
            <mxPoint x="360" y="290" as="sourcePoint" />
            <mxPoint x="410" y="240" as="targetPoint" />
          </mxGeometry>
        </mxCell>
        <mxCell id="iclMmv0nS1doL0X6kXzv-4" value="preassumption: user has entered the account dialog" style="text;html=1;strokeColor=none;fillColor=none;align=center;verticalAlign=middle;whiteSpace=wrap;rounded=0;" vertex="1" parent="MIjQvJClVpNPJ3KCYoKW-1">
          <mxGeometry x="30" y="40" width="130" height="20" as="geometry" />
        </mxCell>
      </root>
    </mxGraphModel>
  </diagram>
</mxfile>
